<?xml version="1.0" standalone="no"?>
<!DOCTYPE svg PUBLIC "-//W3C//DTD SVG 20010904//EN"
 "http://www.w3.org/TR/2001/REC-SVG-20010904/DTD/svg10.dtd">
<svg version="1.0" xmlns="http://www.w3.org/2000/svg"
 width="225.000000pt" height="225.000000pt" viewBox="0 0 225.000000 225.000000"
 preserveAspectRatio="xMidYMid meet">

<g transform="translate(0.000000,225.000000) scale(0.100000,-0.100000)"
fill="#000000" stroke="none">
<path d="M1246 1448 c-127 -208 -233 -381 -237 -383 -4 -3 -50 125 -104 283
-53 158 -111 328 -129 379 l-31 92 -269 -702 c-148 -386 -269 -707 -270 -715
-1 -7 13 -19 30 -26 l31 -14 223 602 c123 330 226 604 229 608 4 5 45 -218 91
-495 46 -276 85 -504 87 -507 2 -2 123 115 268 260 165 165 268 261 274 255 5
-6 130 -180 279 -387 148 -207 272 -374 276 -371 3 4 6 15 6 26 0 22 -507
1458 -518 1469 -4 3 -110 -165 -236 -374z"/>
</g>
</svg>
