<svg width="200" height="200" viewBox="0 0 200 200" fill="none" xmlns="http://www.w3.org/2000/svg">
<path d="M0 0H200V200H0V0Z" fill="white"/>
<path fill-rule="evenodd" clip-rule="evenodd" d="M47.4539 116.064L47.4471 133.604H25.911L25.957 67.1919H47.5867L47.5561 76.7279L55.3995 67.0216H105.946L109.344 82.3474L113.818 66.8513H131.243L135.131 81.4959L138.945 66.8513H173.956L174.089 133.433H152.408L152.211 100.568L144.004 133.433H128.045L122.385 115.213L117.198 133.433H100.876L91.7862 100.738L91.7283 133.604H55.8065L47.4539 116.064V116.064ZM70.1428 114.021L70.1735 80.6445L60.2697 93.9268L70.1428 114.021V114.021Z" fill="black"/>
<path fill-rule="evenodd" clip-rule="evenodd" d="M173.047 67.7029L173.175 132.582H153.312L153.077 93.2458L143.291 132.582H128.714L122.346 111.977L116.508 132.582H101.567L90.8871 94.0972L90.819 132.582L56.382 132.752L46.5429 111.977L46.5344 132.582H26.8221L26.868 68.0434H46.6723L46.6366 79.4526L55.8371 67.8731H105.213L109.229 86.0938L114.506 67.7029H130.54L135.138 85.0721L139.65 67.7029H173.047V67.7029ZM71.0862 77.7497L59.2071 93.9269L71.0505 117.937L71.0862 77.7497ZM174.864 66H138.239L137.886 67.3623L135.122 77.92L132.301 67.192L131.943 66H113.132L112.754 67.192L109.46 78.7715L106.993 67.5326L106.679 66.1703H55.8388L54.9619 66L54.4152 66.8514L48.4757 74.1737L48.4944 68.0434L48.5012 66.3406H25.046V68.0434L25 132.582V134.455H48.3582V132.582L48.3633 119.981L54.7371 133.433L55.2309 134.455H92.6394L92.6428 132.582L92.6888 107.38L99.8152 133.093L100.185 134.455H117.888L118.262 133.093L122.424 118.448L126.976 133.093L127.373 134.455H144.718L145.06 133.093L151.344 107.72L151.492 132.582L151.502 134.455H175L174.997 132.582L174.869 67.7029L174.864 66V66ZM61.3306 94.0972L69.2608 83.3692L69.2352 110.104L61.3306 94.0972Z" fill="white"/>
<path fill-rule="evenodd" clip-rule="evenodd" d="M30.3518 72.1304H42.5222L42.449 89.8402L57.1345 71.6196H70.49L54.5853 93.7568L71.6871 129.176H58.2073L47.1897 104.144L42.3059 109.423L42.2651 129.347H30.328L30.3518 72.1304V72.1304ZM75.0452 71.7899L86.4697 71.6196L86.4458 129.347H75.0213L75.0452 71.7899V71.7899ZM89.4565 71.6196H101.336L109.244 100.909L116.51 71.7899H127.076L134.753 99.7168L141.653 71.6196H153.678L140.013 129.347H131.068L121.816 98.6951L113.412 129.347H104.372L89.4565 71.6196V71.6196ZM156.684 71.6196H169.019L168.982 129.517L156.776 129.347L156.684 71.6196V71.6196Z" fill="#50B848" stroke="#50B848" stroke-width="0.5"/>
</svg>
