<svg width="200" height="200" viewBox="0 0 200 200" fill="none" xmlns="http://www.w3.org/2000/svg">
<rect width="200" height="200" fill="white"/>
<path d="M97.909 131.599V100.454L89.0933 108.11V97.9597L97.909 90.304H107.421V131.599H97.909Z" fill="black"/>
<path d="M176.144 126.467L164.59 106.454L149.714 115.043L161.268 135.055C164.198 140.13 162.244 144.627 161.268 146.318C160.292 148.009 157.389 151.958 151.529 151.958H109.997V143.336L80.2456 160.513L109.997 177.69V169.158H151.529C161.804 169.158 171.006 163.817 176.144 154.918C178.667 150.602 179.997 145.692 179.997 140.692C179.997 135.693 178.668 130.783 176.144 126.467Z" fill="black"/>
<path d="M75.3825 37.2115L63.8281 57.224L78.7039 65.8127L90.2584 45.8001C93.1884 40.7251 98.0453 40.177 99.9975 40.1772C101.95 40.1771 106.807 40.725 109.737 45.8001L130.544 81.8392L123.076 86.1335L152.797 103.311V68.9563L145.39 73.2506L124.598 37.2115C119.46 28.3126 110.265 22.9999 99.99 23C89.7145 22.9999 80.5201 28.3127 75.3825 37.2115Z" fill="black"/>
<path d="M48.466 169.158H71.5976V151.958H48.466C42.6058 151.958 39.703 148.009 38.7268 146.318C37.7507 144.628 35.7967 140.139 38.7268 135.064L59.5468 99.0206L66.9976 103.311V68.9563L37.233 86.1335L44.6645 90.4278L23.8541 126.467C21.3304 130.783 20.0003 135.693 20 140.692C19.9997 145.692 21.3294 150.602 23.8525 154.918C28.9902 163.817 38.1905 169.158 48.466 169.158Z" fill="black"/>
</svg>
