<svg width="200" height="200" viewBox="0 0 200 200" fill="none" xmlns="http://www.w3.org/2000/svg">
<rect width="200" height="200" fill="white"/>
<mask id="mask0_833_27" style="mask-type:luminance" maskUnits="userSpaceOnUse" x="41" y="40" width="146" height="120">
<path d="M186.528 40H41V160H186.528V40Z" fill="white"/>
</mask>
<g mask="url(#mask0_833_27)">
<path d="M178.143 51.4907C178.143 48.565 176.051 46.8217 172.777 46.8217H165.637V62.4508H168.608V56.4174H172.655C174.05 56.4174 174.687 57.0238 174.687 58.3578V60.7529C174.687 61.4654 174.823 62.0263 175.005 62.4659H178.022C177.84 62.0111 177.658 61.1319 177.658 60.571V58.3881C177.658 56.7509 177.051 55.6595 175.945 55.0531C177.294 54.4164 178.128 53.2795 178.128 51.4907M172.837 53.7494H168.608V49.6109H172.777C175.157 49.6109 175.157 51.142 175.157 51.6574C175.157 53.5978 173.216 53.7494 172.837 53.7494Z" fill="#00583D"/>
<path d="M171.886 40C163.807 40 157.258 46.5488 157.258 54.6438C157.258 62.7388 163.807 69.2724 171.886 69.2724C179.966 69.2724 186.53 62.7236 186.53 54.6438C186.53 46.5639 179.981 40 171.886 40ZM171.886 66.3921C165.398 66.3921 160.138 61.1319 160.138 54.6438C160.138 48.1556 165.398 42.8954 171.886 42.8954C178.375 42.8954 183.635 48.1556 183.635 54.6438C183.635 61.1319 178.375 66.3921 171.886 66.3921Z" fill="#00583D"/>
<path d="M100.227 41.5463C132.956 41.5463 159.499 68.0899 159.499 100.773C159.499 133.456 132.94 160 100.227 160C67.5134 160 41 133.502 41 100.773C41 68.0445 67.4982 41.5463 100.227 41.5463Z" fill="#D0E4A6"/>
<path d="M100.227 41.5463C67.4982 41.5463 41 68.0899 41 100.773C41 133.456 67.4982 160 100.227 160C132.956 160 159.499 133.502 159.499 100.773C159.499 68.0445 132.956 41.5463 100.227 41.5463ZM41.758 100.773C41.758 68.4992 67.9227 42.3042 100.227 42.3042C101.606 42.3042 102.971 42.3649 104.32 42.471C163.122 51.8545 155.922 135.867 100.03 140.551L99.9237 157.196C90.616 152.542 75.2749 141.218 69.9389 125.589C74.2592 111.248 88.5998 98.2415 99.575 93.2542V109.55C108.595 106.579 127.21 87.9181 128.211 78.2769C125.907 67.9687 107.594 50.0202 99.9085 48.0647C99.9085 48.0647 100.151 62.6933 99.9085 63.3148C68.5897 63.3148 52.6271 92.572 52.809 110.611C52.809 128.454 59.9338 145.023 75.0172 153.573C55.3557 144.159 41.758 124.058 41.758 100.773Z" fill="#00583D"/>
</g>
</svg>
