<?xml version="1.0" standalone="no"?>
<!DOCTYPE svg PUBLIC "-//W3C//DTD SVG 20010904//EN"
 "http://www.w3.org/TR/2001/REC-SVG-20010904/DTD/svg10.dtd">
<svg version="1.0" xmlns="http://www.w3.org/2000/svg"
 width="497.000000pt" height="118.000000pt" viewBox="0 0 497.000000 118.000000"
 preserveAspectRatio="xMidYMid meet">

<g transform="translate(0.000000,118.000000) scale(0.100000,-0.100000)"
fill="#000000" stroke="none">
<path d="M1029 1054 c-31 -49 -104 -170 -164 -269 -59 -99 -114 -186 -120
-193 -10 -11 -29 35 -95 235 -46 136 -89 261 -95 276 l-12 28 -18 -48 c-10
-26 -98 -258 -196 -515 -99 -256 -179 -471 -179 -476 0 -12 38 -27 46 -19 5 5
44 109 267 706 55 148 65 170 71 145 3 -16 31 -180 62 -364 31 -184 58 -337
60 -340 3 -2 91 83 197 188 l193 193 131 -183 c71 -101 163 -230 204 -287 62
-86 74 -99 77 -79 2 13 -80 258 -181 543 -101 286 -186 527 -189 534 -2 9 -27
-21 -59 -75z"/>
<path d="M2825 984 c-72 -40 -101 -92 -111 -201 l-7 -70 -58 -17 c-52 -14 -59
-19 -59 -41 0 -24 3 -25 60 -25 l60 0 0 -295 0 -295 50 0 50 0 0 295 0 294 88
3 87 3 3 37 3 37 -88 3 -88 3 2 63 c3 76 22 115 63 132 29 12 94 9 132 -5 13
-5 20 3 29 34 7 23 9 44 5 48 -4 4 -48 9 -99 10 -71 3 -99 0 -122 -13z"/>
<path d="M4600 520 l0 -480 50 0 50 0 0 480 0 480 -50 0 -50 0 0 -480z"/>
<path d="M1590 941 c-39 -73 34 -147 90 -91 24 24 26 57 4 88 -20 29 -79 31
-94 3z"/>
<path d="M2175 719 c-63 -12 -91 -25 -134 -65 -39 -35 -41 -35 -41 -13 0 56
-10 69 -51 69 l-39 0 0 -335 0 -335 50 0 50 0 0 211 c0 236 8 285 54 334 72
76 221 72 280 -8 20 -27 21 -44 24 -283 l3 -254 50 0 49 0 0 248 c0 263 -6
305 -47 361 -44 57 -154 88 -248 70z"/>
<path d="M4089 720 c-94 -16 -173 -82 -211 -178 -18 -47 -22 -77 -22 -172 -1
-99 2 -122 22 -165 32 -70 95 -131 162 -156 72 -28 210 -29 290 -2 l55 18 3
47 3 47 -53 -18 c-113 -38 -227 -35 -293 10 -41 28 -82 105 -87 164 l-3 40
233 3 232 2 0 57 c0 206 -140 334 -331 303z m149 -107 c37 -28 61 -71 68 -126
l7 -47 -177 0 c-196 0 -190 -3 -164 71 29 88 95 132 186 126 33 -2 63 -11 80
-24z"/>
<path d="M1590 375 l0 -335 50 0 50 0 0 335 0 335 -50 0 -50 0 0 -335z"/>
<path d="M3102 448 c3 -252 4 -265 26 -310 13 -27 36 -56 50 -67 101 -70 296
-54 367 30 l24 29 7 -45 6 -45 44 0 44 0 0 335 0 335 -49 0 -49 0 -4 -222 c-5
-243 -10 -272 -61 -326 -71 -75 -228 -69 -277 10 -19 31 -20 50 -20 286 l0
252 -56 0 -55 0 3 -262z"/>
</g>
</svg>
