<svg xmlns="http://www.w3.org/2000/svg" width="200" height="200" fill="none" viewBox="0 0 200 200">
  <path fill="#D3062A" d="M0 0h200v200H0V0Z"/>
  <path fill="#CE0029" fill-rule="evenodd" stroke="#fff" stroke-width="1.375" d="M169.504 90.468a1.489 1.489 0 0 0-.225-.157l-3.112-1.746C145.41 76.91 123.147 71 100 71s-45.408 5.91-66.168 17.566l-3.11 1.745a1.413 1.413 0 0 0-.577 1.856l18.029 36.634a1.409 1.409 0 0 0 1.961.606l3.47-1.956c14.257-8.04 31.168-12.65 46.395-12.65 15.228 0 32.137 4.61 46.394 12.651l3.472 1.955a1.409 1.409 0 0 0 1.96-.606l18.029-36.634c.29-.59.131-1.288-.351-1.699Z" clip-rule="evenodd"/>
  <path fill="#fff" fill-rule="evenodd" d="M133.806 90.191a.533.533 0 0 0-.131.458l2.527 14.302-2.581 6.813c-.063.164-.046.273.003.377a.502.502 0 0 0 .28.233c1.917.678 3.938 1.438 5.408 2.03a.47.47 0 0 0 .612-.259l2.72-6.661 11.638-8.764a.514.514 0 0 0 .186-.422.456.456 0 0 0-.263-.378c-1.819-.882-3.751-1.807-5.555-2.579a.473.473 0 0 0-.505.085l-7.016 6.45c-.12-1.592-.727-9.48-.727-9.48a.468.468 0 0 0-.316-.41 195.616 195.616 0 0 0-5.81-1.87c-.157-.046-.365-.02-.47.075Zm-26.659-4.36-1.678 20.222a.474.474 0 0 0 .437.509c.858.055 3.136.221 5.807.559a.475.475 0 0 0 .354-.099.473.473 0 0 0 .173-.323l.869-9.028 5.012 10.28a.473.473 0 0 0 .33.256c1.563.314 3.484.738 5.413 1.194a.474.474 0 0 0 .568-.354l4.538-19.894a.47.47 0 0 0-.351-.563c-1.894-.444-4.232-.95-6.1-1.32a.47.47 0 0 0-.552.366l-2.15 10.26-5.213-11.627a.472.472 0 0 0-.374-.275 121.938 121.938 0 0 0-6.584-.593.472.472 0 0 0-.499.43Zm-8.076-.652-3.444.063c-4.465.161-9.519.643-14.231 1.357a.47.47 0 0 0-.396.528l2.719 20.195a.47.47 0 0 0 .543.4c5.515-.892 10.983-1.384 16.058-1.357a.47.47 0 0 0 .473-.466l.04-3.723a.475.475 0 0 0-.135-.336.491.491 0 0 0-.333-.14c-2.784-.089-7.855.233-10.392.497l-.452-3.679c2.14-.23 7.363-.507 7.595-.503a.485.485 0 0 0 .46-.481l-.068-3.43a.467.467 0 0 0-.145-.33.497.497 0 0 0-.336-.132c-1.33-.017-5.517.256-8.027.505l-.456-3.73c2.506-.241 5.149-.423 7.25-.5l3.307-.058a.472.472 0 0 0 .463-.473l-.013-3.739a.472.472 0 0 0-.48-.468Zm-26.32 3.086a130.018 130.018 0 0 0-6.769 1.771.47.47 0 0 0-.33.357l-2.207 10.712-8.362-7.046a.472.472 0 0 0-.48-.077 132.12 132.12 0 0 0-6.504 2.828.47.47 0 0 0-.23.616l8.151 18.469a.471.471 0 0 0 .627.238c1.305-.596 3.074-1.327 5.408-2.231a.445.445 0 0 0 .264-.255.506.506 0 0 0-.002-.369s-2.548-5.981-3.468-8.137l7.39 5.186a.469.469 0 0 0 .722-.25l2.589-8.639 2.39 8.592a.472.472 0 0 0 .577.328 177.946 177.946 0 0 1 5.613-1.434.463.463 0 0 0 .297-.215.474.474 0 0 0 .052-.362l-5.166-19.742a.47.47 0 0 0-.562-.34" clip-rule="evenodd"/>
</svg>
