<svg viewBox="0 0 500 500" xmlns="http://www.w3.org/2000/svg">
  <defs>
    <linearGradient gradientUnits="userSpaceOnUse" x1="1367.857" y1="-665.562" x2="1367.857" y2="2502.504" id="gradient-0">
      <stop offset="0" style="stop-color: rgba(187, 218, 85, 1)"></stop>
      <stop offset="1" style="stop-color: rgba(135, 165, 36, 1)"></stop>
    </linearGradient>
  </defs>
  <g transform="matrix(0.1, 0, 0, -0.1, 116.117592, 348.015991)" fill="#FFFFFF" stroke="none">
    <path fill="currentColor" d="M 338.232 1710.498 C 207.004 1710.498 100.627 1816.876 100.627 1948.103 C 100.627 2079.316 207.004 2185.707 338.232 2185.707 C 469.459 2185.707 575.836 2079.316 575.836 1948.103 C 575.836 1816.876 469.459 1710.498 338.232 1710.498 M 2858.436 984.996 L 1432.808 2410.638 C 1375.774 2467.657 1296.582 2502.504 1209.458 2502.504 L 100.627 2502.504 C -75.202 2502.504 -216.184 2361.536 -216.184 2185.707 L -216.184 1076.876 C -216.184 989.752 -181.323 910.56 -122.723 853.527 L 1301.324 -572.101 C 1359.939 -629.135 1439.145 -665.562 1526.255 -665.562 C 1613.379 -665.562 1692.585 -629.135 1749.604 -572.101 L 2858.436 536.716 C 2917.05 593.749 2951.897 672.941 2951.897 760.065 C 2951.897 848.77 2915.455 927.976 2858.436 984.996 Z" style="stroke: rgb(187, 218, 85);"></path>
    <path d="M 1508.828 1380.909 C 1398.472 1200.168 1306.363 1049.84 1302.887 1048.102 C 1299.412 1045.496 1259.44 1156.721 1212.517 1294.014 C 1166.462 1431.308 1116.064 1579.029 1100.423 1623.345 L 1073.486 1703.288 L 839.739 1093.288 C 711.135 757.874 605.993 478.943 605.124 471.991 C 604.255 465.909 616.42 455.481 631.192 449.399 L 658.129 437.233 L 851.904 960.338 C 958.785 1247.091 1048.286 1485.182 1050.893 1488.658 C 1054.368 1493.003 1089.996 1299.227 1129.967 1058.53 C 1169.939 818.701 1203.828 620.58 1205.565 617.974 C 1207.303 616.236 1312.446 717.902 1438.443 843.9 C 1581.819 987.276 1671.321 1070.695 1676.534 1065.481 C 1680.88 1060.268 1789.497 909.071 1918.97 729.199 C 2047.574 549.327 2155.324 404.213 2158.799 406.82 C 2161.406 410.295 2164.014 419.854 2164.014 429.412 C 2164.014 448.53 1723.457 1696.336 1713.898 1705.895 C 1710.423 1708.501 1618.315 1562.519 1508.828 1380.909 Z" style=""></path>
  </g>
</svg>